<?xml version="1.0" encoding="utf-8" standalone="no"?>
<!DOCTYPE svg PUBLIC "-//W3C//DTD SVG 1.1//EN" "http://www.w3.org/Graphics/SVG/1.1/DTD/svg11.dtd">
<svg width="3000px" height="3000px" version="1.1" xmlns="http://www.w3.org/2000/svg" xmlns:xlink="http://www.w3.org/1999/xlink">
<g id="bg">
<rect x="0" y="0" width="3000px" height="3000px" style="fill:rgb(255,255,255);"/>
</g>
<g id="ideograms">
<g id="highlighttrack_0">
<path d="M 2085.82,537.34 L 2123.82,474.89 " style="stroke-linecap:round;fill:rgb(0,0,0);" />
<path d="M 2526.75,1035.58 L 2593.35,1005.45 " style="stroke-linecap:round;fill:rgb(0,0,0);" />
<path d="M2085.823,537.340 A1126.900,1126.900 40.000 0,1 2526.751,1035.579 L2593.354,1005.453 A1200.000,1200.000 0.000 0,0 2123.824,474.894 Z" style="stroke-linecap:round;fill:rgb(102,194,165);" />
<path d="M2114.623,555.467 A1126.900,1126.900 40.000 0,1 2347.356,757.106 L2402.322,708.916 A1200.000,1200.000 0.000 0,0 2154.492,494.197 Z" style="stroke-linecap:round;fill:rgb(123,50,148);" />
</g>
<path d="M1500.000,320.000 A1180.000,1180.000 40.000 1,1 1499.259,320.000 L1499.246,300.000 A1200.000,1200.000 0.000 1,0 1500.000,300.000 Z" style="stroke-width:3.0;stroke:rgb(0,0,0);stroke-linecap:round;fill:rgb(150,150,150);" />
<text x="1500.1" y="1834.5" font-size="62.4px" font-family="CMUBright-BoldOblique" style="text-anchor:middle;fill:rgb(150,150,150);" transform="rotate(-0.0,1500.1,1834.5)" >NC<tspan baseline-shift="-40%" font-size="90%">0</tspan>31379-CIRCULAR</text>
<line x1='1500.0' y1='300.0' x2='1500.0' y2='270.0' style="stroke-width:2.0;stroke:rgb(0,0,0);stroke-linecap:round;fill:none;" />
<text x="1515.0" y="268.1" font-size="39.0px" font-family="CMUBright-Roman" style="text-anchor:start;fill:rgb(0,0,0);" transform="rotate(270.0,1515.0,268.1)" >0 kb</text>
<line x1='1953.1' y1='388.8' x2='1962.5' y2='365.7' style="stroke-width:2.0;stroke:rgb(0,0,0);stroke-linecap:round;fill:none;" />
<text x="1974.4" y="368.4" font-size="32.5px" font-family="CMUBright-Roman" style="text-anchor:start;fill:rgb(0,0,0);" transform="rotate(292.2,1974.4,368.4)" >1</text>
<line x1='2339.1' y1='642.1' x2='2356.6' y2='624.3' style="stroke-width:2.0;stroke:rgb(0,0,0);stroke-linecap:round;fill:none;" />
<text x="2366.5" y="631.3" font-size="32.5px" font-family="CMUBright-Roman" style="text-anchor:start;fill:rgb(0,0,0);" transform="rotate(314.4,2366.5,631.3)" >2</text>
<line x1='2600.9' y1='1022.4' x2='2623.8' y2='1012.5' style="stroke-width:2.0;stroke:rgb(0,0,0);stroke-linecap:round;fill:none;" />
<text x="2630.6" y="1023.2" font-size="32.5px" font-family="CMUBright-Roman" style="text-anchor:start;fill:rgb(0,0,0);" transform="rotate(336.5,2630.6,1023.2)" >3</text>
<line x1='2699.7' y1='1473.4' x2='2724.7' y2='1472.9' style="stroke-width:2.0;stroke:rgb(0,0,0);stroke-linecap:round;fill:none;" />
<text x="2726.9" y="1484.3" font-size="32.5px" font-family="CMUBright-Roman" style="text-anchor:start;fill:rgb(0,0,0);" transform="rotate(358.7,2726.9,1484.3)" >4</text>
<line x1='2620.9' y1='1928.4' x2='2649.0' y2='1939.1' style="stroke-width:2.0;stroke:rgb(0,0,0);stroke-linecap:round;fill:none;" />
<text x="2645.4" y="1953.8" font-size="39.0px" font-family="CMUBright-Roman" style="text-anchor:start;fill:rgb(0,0,0);" transform="rotate(20.9,2645.4,1953.8)" >5 kb</text>
<line x1='2376.2' y1='2319.9' x2='2394.5' y2='2337.0' style="stroke-width:2.0;stroke:rgb(0,0,0);stroke-linecap:round;fill:none;" />
<text x="2387.3" y="2347.4" font-size="32.5px" font-family="CMUBright-Roman" style="text-anchor:start;fill:rgb(0,0,0);" transform="rotate(43.1,2387.3,2347.4)" >6</text>
<line x1='2001.8' y1='2590.0' x2='2012.3' y2='2612.8' style="stroke-width:2.0;stroke:rgb(0,0,0);stroke-linecap:round;fill:none;" />
<text x="2002.6" y="2619.3" font-size="32.5px" font-family="CMUBright-Roman" style="text-anchor:start;fill:rgb(0,0,0);" transform="rotate(65.3,2002.6,2619.3)" >7</text>
<line x1='1553.1' y1='2698.8' x2='1554.2' y2='2723.8' style="stroke-width:2.0;stroke:rgb(0,0,0);stroke-linecap:round;fill:none;" />
<text x="1541.8" y="2726.3" font-size="32.5px" font-family="CMUBright-Roman" style="text-anchor:start;fill:rgb(0,0,0);" transform="rotate(87.5,1541.8,2726.3)" >8</text>
<line x1='1096.5' y1='2630.1' x2='1088.1' y2='2653.7' style="stroke-width:2.0;stroke:rgb(0,0,0);stroke-linecap:round;fill:none;" />
<text x="1099.2" y="2659.7" font-size="32.5px" font-family="CMUBright-Roman" style="text-anchor:end;fill:rgb(0,0,0);" transform="rotate(-70.4,1099.2,2659.7)" >9</text>
<line x1='699.7' y1='2394.1' x2='679.7' y2='2416.5' style="stroke-width:2.0;stroke:rgb(0,0,0);stroke-linecap:round;fill:none;" />
<text x="689.6" y="2427.9" font-size="39.0px" font-family="CMUBright-Roman" style="text-anchor:end;fill:rgb(0,0,0);" transform="rotate(-48.2,689.6,2427.9)" >10 kb</text>
<line x1='421.3' y1='2025.8' x2='398.9' y2='2036.7' style="stroke-width:2.0;stroke:rgb(0,0,0);stroke-linecap:round;fill:none;" />
<text x="402.4" y="2048.4" font-size="32.5px" font-family="CMUBright-Roman" style="text-anchor:end;fill:rgb(0,0,0);" transform="rotate(-26.0,402.4,2048.4)" >11</text>
<line x1='302.6' y1='1579.6' x2='277.7' y2='1581.3' style="stroke-width:2.0;stroke:rgb(0,0,0);stroke-linecap:round;fill:none;" />
<text x="276.6" y="1593.4" font-size="32.5px" font-family="CMUBright-Roman" style="text-anchor:end;fill:rgb(0,0,0);" transform="rotate(-3.8,276.6,1593.4)" >12</text>
<line x1='361.2' y1='1121.6' x2='337.5' y2='1113.7' style="stroke-width:2.0;stroke:rgb(0,0,0);stroke-linecap:round;fill:none;" />
<text x="331.7" y="1125.0" font-size="32.5px" font-family="CMUBright-Roman" style="text-anchor:end;fill:rgb(0,0,0);" transform="rotate(18.4,331.7,1125.0)" >13</text>
<line x1='588.4' y1='719.7' x2='569.4' y2='703.4' style="stroke-width:2.0;stroke:rgb(0,0,0);stroke-linecap:round;fill:none;" />
<text x="560.1" y="711.3" font-size="32.5px" font-family="CMUBright-Roman" style="text-anchor:end;fill:rgb(0,0,0);" transform="rotate(40.6,560.1,711.3)" >14</text>
<line x1='950.5' y1='433.2' x2='936.7' y2='406.6' style="stroke-width:2.0;stroke:rgb(0,0,0);stroke-linecap:round;fill:none;" />
<text x="922.5" y="411.7" font-size="39.0px" font-family="CMUBright-Roman" style="text-anchor:end;fill:rgb(0,0,0);" transform="rotate(62.7,922.5,411.7)" >15 kb</text>
<line x1='1393.9' y1='304.7' x2='1391.7' y2='279.8' style="stroke-width:2.0;stroke:rgb(0,0,0);stroke-linecap:round;fill:none;" />
<text x="1379.1" y="279.0" font-size="32.5px" font-family="CMUBright-Roman" style="text-anchor:end;fill:rgb(0,0,0);" transform="rotate(84.9,1379.1,279.0)" >16</text>
<path d="M1500.000,320.000 A1180.000,1180.000 40.000 1,1 1499.259,320.000 L1499.246,300.000 A1200.000,1200.000 0.000 1,0 1500.000,300.000 Z" style="stroke-width:3.0;stroke:rgb(0,0,0);stroke-linecap:round;fill:none;" />
</g>
<g id="plot0">
<g id="plot0-axis">
</g>
<line x1='2406.1' y1='698.1' x2='2421.1' y2='684.9' style="stroke-width:2.0;stroke:rgb(0,0,0);stroke-linecap:round;fill:none;" />
<line x1='2421.1' y1='684.9' x2='2473.5' y2='638.5' style="stroke-width:2.0;stroke:rgb(0,0,0);stroke-linecap:round;fill:none;" />
<line x1='2473.5' y1='638.5' x2='2475.8' y2='636.5' style="stroke-width:2.0;stroke:rgb(0,0,0);stroke-linecap:round;fill:none;" />
<text x="2492.8" y="640.8" font-size="36.4px" font-family="CMUBright-Roman" style="text-anchor:start;fill:rgb(0,0,0);" transform="rotate(318.5,2492.8,640.8)" >COX1</text>
</g>
<g id="plot1">
<g id="plot1-axis">
</g>
<text x="1517.3" y="550.2" font-size="52.0px" font-family="CMUBright-Bold" style="text-anchor:start;fill:rgb(0,0,0);" transform="rotate(270.1,1517.3,550.2)" >+</text>
</g>
<g id="plot2">
<g id="plot2-axis">
</g>
</g>
<g id="plot3">
<g id="plot3-axis">
<path d="M 1500.00,770.76 A729.24,729.24 0.00 1,1 1499.54,770.76" style="stroke-width:1.0;stroke:rgb(189,189,189);stroke-opacity:0.33;stroke-linecap:round;fill:none;" />
<path d="M 1500.00,760.14 A739.86,739.86 0.00 1,1 1499.54,760.14" style="stroke-width:1.0;stroke:rgb(189,189,189);stroke-opacity:0.33;stroke-linecap:round;fill:none;" />
<path d="M 1500.00,749.52 A750.48,750.48 0.00 1,1 1499.53,749.52" style="stroke-width:1.0;stroke:rgb(189,189,189);stroke-opacity:0.33;stroke-linecap:round;fill:none;" />
<path d="M 1500.00,738.90 A761.10,761.10 0.00 1,1 1499.52,738.90" style="stroke-width:1.0;stroke:rgb(189,189,189);stroke-opacity:0.33;stroke-linecap:round;fill:none;" />
<path d="M 1500.00,728.28 A771.72,771.72 0.00 1,1 1499.52,728.28" style="stroke-width:1.0;stroke:rgb(189,189,189);stroke-opacity:0.33;stroke-linecap:round;fill:none;" />
<path d="M 1500.00,717.66 A782.34,782.34 0.00 1,1 1499.51,717.66" style="stroke-width:1.0;stroke:rgb(189,189,189);stroke-opacity:0.33;stroke-linecap:round;fill:none;" />
<path d="M 1500.00,707.04 A792.96,792.96 0.00 1,1 1499.50,707.04" style="stroke-width:1.0;stroke:rgb(189,189,189);stroke-opacity:0.33;stroke-linecap:round;fill:none;" />
<path d="M 1500.00,696.42 A803.58,803.58 0.00 1,1 1499.50,696.42" style="stroke-width:1.0;stroke:rgb(189,189,189);stroke-opacity:0.33;stroke-linecap:round;fill:none;" />
<path d="M 1500.00,685.80 A814.20,814.20 0.00 1,1 1499.49,685.80" style="stroke-width:1.0;stroke:rgb(189,189,189);stroke-opacity:0.33;stroke-linecap:round;fill:none;" />
<path d="M 1500.00,675.18 A824.82,824.82 0.00 1,1 1499.48,675.18" style="stroke-width:1.0;stroke:rgb(189,189,189);stroke-opacity:0.33;stroke-linecap:round;fill:none;" />
<path d="M 1500.00,664.56 A835.44,835.44 0.00 1,1 1499.48,664.56" style="stroke-width:1.0;stroke:rgb(189,189,189);stroke-opacity:0.33;stroke-linecap:round;fill:none;" />
<path d="M 1500.00,653.94 A846.06,846.06 0.00 1,1 1499.47,653.94" style="stroke-width:1.0;stroke:rgb(189,189,189);stroke-opacity:0.33;stroke-linecap:round;fill:none;" />
<path d="M 1500.00,643.32 A856.68,856.68 0.00 1,1 1499.46,643.32" style="stroke-width:1.0;stroke:rgb(189,189,189);stroke-opacity:0.33;stroke-linecap:round;fill:none;" />
<path d="M 1500.00,632.70 A867.30,867.30 0.00 1,1 1499.46,632.70" style="stroke-width:1.0;stroke:rgb(189,189,189);stroke-opacity:0.33;stroke-linecap:round;fill:none;" />
<path d="M 1500.00,622.08 A877.92,877.92 0.00 1,1 1499.45,622.08" style="stroke-width:1.0;stroke:rgb(189,189,189);stroke-opacity:0.33;stroke-linecap:round;fill:none;" />
<path d="M 1500.00,611.46 A888.54,888.54 0.00 1,1 1499.44,611.46" style="stroke-width:1.0;stroke:rgb(189,189,189);stroke-opacity:0.33;stroke-linecap:round;fill:none;" />
<path d="M 1500.00,600.84 A899.16,899.16 0.00 1,1 1499.44,600.84" style="stroke-width:1.0;stroke:rgb(189,189,189);stroke-opacity:0.33;stroke-linecap:round;fill:none;" />
</g>
</g>
<defs>
<pattern id="checker" width="10" height="10" patternTransform="rotate(45 0 0)" patternUnits="userSpaceOnUse"><line x1="0" y1="0" x2="10" y2="0" style="stroke:black;stroke-width:2" /><line x1="0" y1="0" x2="0" y2="10" style="stroke:black;stroke-width:2" /></pattern>
<pattern id="vline-sparse" width="10" height="10" patternTransform="rotate(0 0 0)" patternUnits="userSpaceOnUse"><line x1="0" y1="0" x2="0" y2="10" style="stroke:black;stroke-width:2" /></pattern>
<pattern id="hline" width="10" height="10" patternTransform="rotate(0 0 0)" patternUnits="userSpaceOnUse"><line x1="0" y1="0" x2="10" y2="0" style="stroke:black;stroke-width:5" /></pattern>
<pattern id="checker" width="10" height="10" patternTransform="rotate(45 0 0)" patternUnits="userSpaceOnUse"><line x1="0" y1="0" x2="10" y2="0" style="stroke:black;stroke-width:5" /><line x1="0" y1="0" x2="0" y2="10" style="stroke:black;stroke-width:4" /></pattern>
<pattern id="vline" width="10" height="10" patternTransform="rotate(0 0 0)" patternUnits="userSpaceOnUse"><line x1="0" y1="0" x2="0" y2="10" style="stroke:black;stroke-width:5" /></pattern>
<pattern id="hline-sparse" width="10" height="10" patternTransform="rotate(0 0 0)" patternUnits="userSpaceOnUse"><line x1="0" y1="0" x2="10" y2="0" style="stroke:black;stroke-width:2" /></pattern>
</defs>
</svg>
